<svg xmlns="http://www.w3.org/2000/svg" width="24" height="24" viewBox="0 0 24 24" style="enable-background:new 0 0 24 24" xml:space="preserve"><path d="M0 24v-8h1c3.227 0 6.21-1.034 8.66-2.774-.889-1.989-2.626-4.533-4.31-6.795C3.136 3.46 1 1 1 1s2.337 2.274 5.18 4.655c2.166 1.812 4.604 3.686 6.538 4.683A14.917 14.917 0 0 0 16 1V0h8v2h-6.03c-.204 3.52-1.498 6.745-3.53 9.372.282 1.896.905 3.52 1.473 4.672.61 1.232 1.146 1.954 1.146 1.954s-.691-.58-1.891-1.261a16.047 16.047 0 0 0-4.56-1.724A16.89 16.89 0 0 1 2 17.97V24H0zm20.21-2.668c.403-.374.388-1.048-.033-1.503-.421-.455-1.097-.513-1.51-.13-.417.379-.387 1.068.041 1.513.433.448 1.094.49 1.502.12z" style="fill:#DDC7AA"/></svg>