<svg id="Corner" xmlns="http://www.w3.org/2000/svg" xmlns:xlink="http://www.w3.org/1999/xlink" viewBox="0 0 94.007 94.008" style="transform:scaleX(-1)"><defs><linearGradient id="linear-gradient" x1="0.489" y1="32.571" x2="60.691" y2="32.571" gradientUnits="userSpaceOnUse"><stop offset="0" stop-color="#8c6c52"/><stop offset="0.26" stop-color="#c6a27b"/><stop offset="0.859" stop-color="#8c6c52"/></linearGradient><linearGradient id="linear-gradient-2" x1="0.023" y1="6.419" x2="49.63" y2="49.274" gradientUnits="userSpaceOnUse"><stop offset="0.696" stop-color="#b4906d"/><stop offset="0.931" stop-color="#b4906d" stop-opacity="0"/></linearGradient></defs><path id="shadow" d="M30.342,8.2a42.035,42.035,0,0,0-5.625,4.664l.01-.011-.239.227c-.383.376-.765.754-1.139,1.143A84,84,0,0,0,16.1,22.854c-.018.094-.034.19-.054.283l-.136-.025c-.266.365-.542.724-.8,1.093A79.418,79.418,0,0,0,8.477,35.323c-.931,1.946-1.8,3.92-2.564,5.935a38.279,38.279,0,0,0-1.8,6.156A139.935,139.935,0,0,0,1.735,66.855a.482.482,0,0,1-.729-.066c-.015-2.172-.009-4.4.1-6.581A87.631,87.631,0,0,1,2.593,47.1a39.963,39.963,0,0,1,1.833-6.4c.766-2.072,1.657-4.091,2.614-6.077.7-1.438,1.466-2.842,2.257-4.231-.356-1.295-.752-2.578-1.22-3.835-.392-1.061-.835-2.1-1.3-3.132q-.639,1.028-1.235,2.082a33.878,33.878,0,0,0-2.184,4.585,19.735,19.735,0,0,0-1.6,4.855l-.623.018c-.03-3.63,1.543-7,3.046-10.165.529-1.082,1.121-2.13,1.739-3.161-.549-1.084-1.128-2.152-1.76-3.189a45.409,45.409,0,0,0-2.754-4.015,9.577,9.577,0,0,1,.068-2.119,44.031,44.031,0,0,1,3.842,5.434c.5.834.969,1.688,1.419,2.551a49.437,49.437,0,0,1,3.155-4.331c.326-.43.683-.832,1.031-1.242-4.8-1.236-6.9-3.939-9.545-6.526V6.967L2.392,6.36a39.258,39.258,0,0,0,3.456,4,19.78,19.78,0,0,0,5.8,3.5c.407-.458.819-.912,1.229-1.367a8.152,8.152,0,0,0,.451-2.173,7.547,7.547,0,0,0-.3-2.924,9.327,9.327,0,0,0-1.291-2.687A10.71,10.71,0,0,0,9.712,2.5l.772-.339A8.761,8.761,0,0,1,12.609,4.09a10.453,10.453,0,0,1,1.5,2.972A8.733,8.733,0,0,1,14.53,10.4c0,.138-.024.274-.037.411q1.257-1.264,2.544-2.5c1.315-1.144,2.6-2.318,3.938-3.433C22.357,3.82,23.056,3.2,24.453,2.164l1.285.325c-1.258,1.183-2.55,2.316-3.822,3.471L18.192,9.514c-1.174,1.247-2.386,2.456-3.544,3.713-.245.289-.5.573-.748.856.222.3.439.613.639.932a12.1,12.1,0,0,1,1.2,2.545,10.586,10.586,0,0,1,.511,2.47,83.844,83.844,0,0,1,5.978-6.9c.383-.4.777-.786,1.172-1.174l.6-.567.5-.544A8.1,8.1,0,0,0,26,8.288a9.935,9.935,0,0,0,.089-6l1.036-.1a9.193,9.193,0,0,1,.332,6.3c.674-.518,1.351-1.033,2.056-1.508A30.2,30.2,0,0,1,40.146,2.154l1.393.43A42.1,42.1,0,0,0,30.342,8.2ZM15.009,20.457a9.416,9.416,0,0,0-.635-2.4,13.63,13.63,0,0,0-1.137-2.224c-.126-.191-.266-.371-.4-.556-.527.6-1.045,1.2-1.522,1.835a58.392,58.392,0,0,0-3.682,4.993c.613,1.309,1.173,2.642,1.668,4,.329.9.605,1.819.88,2.738Q11.888,26,13.814,23.292c.42-.591.857-1.169,1.29-1.75A6.277,6.277,0,0,0,15.009,20.457Z" style="opacity:0.5"/><path id="corner_shape" data-name="corner shape" d="M29.342,6.2a42.035,42.035,0,0,0-5.625,4.664l.01-.011-.239.227c-.383.376-.765.754-1.139,1.143A84,84,0,0,0,15.1,20.854c-.018.094-.034.19-.054.283l-.136-.025c-.266.365-.542.724-.8,1.093A79.418,79.418,0,0,0,7.477,33.323c-.931,1.946-1.8,3.92-2.564,5.935a38.279,38.279,0,0,0-1.8,6.156A139.935,139.935,0,0,0,.735,64.855a.482.482,0,0,1-.729-.066c-.015-2.172-.009-4.4.1-6.581A87.631,87.631,0,0,1,1.593,45.1a39.963,39.963,0,0,1,1.833-6.4c.766-2.072,1.657-4.091,2.614-6.077.7-1.438,1.466-2.842,2.257-4.231-.356-1.295-.752-2.578-1.22-3.835-.392-1.061-.835-2.1-1.3-3.132q-.639,1.028-1.235,2.082a33.878,33.878,0,0,0-2.184,4.585,19.735,19.735,0,0,0-1.6,4.855l-.623.018c-.03-3.63,1.543-7,3.046-10.165.529-1.082,1.121-2.13,1.739-3.161-.549-1.084-1.128-2.152-1.76-3.189A45.409,45.409,0,0,0,.407,12.434a9.577,9.577,0,0,1,.068-2.119,44.031,44.031,0,0,1,3.842,5.434c.5.834.969,1.688,1.419,2.551a49.437,49.437,0,0,1,3.155-4.331c.326-.43.683-.832,1.031-1.242C5.118,11.491,3.02,8.788.377,6.2V4.967L1.392,4.36a39.258,39.258,0,0,0,3.456,4,19.78,19.78,0,0,0,5.8,3.5c.407-.458.819-.912,1.229-1.367a8.152,8.152,0,0,0,.451-2.173,7.547,7.547,0,0,0-.3-2.924,9.327,9.327,0,0,0-1.291-2.687A10.71,10.71,0,0,0,8.712.5L9.484.163A8.761,8.761,0,0,1,11.609,2.09a10.453,10.453,0,0,1,1.5,2.972A8.733,8.733,0,0,1,13.53,8.4c0,.138-.024.274-.037.411q1.257-1.264,2.544-2.495c1.315-1.144,2.6-2.318,3.938-3.433C21.357,1.82,22.056,1.2,23.453.164l1.285.325c-1.258,1.183-2.55,2.316-3.822,3.471L17.192,7.514c-1.174,1.247-2.386,2.456-3.544,3.713-.245.289-.5.573-.748.856.222.3.439.613.639.932a12.1,12.1,0,0,1,1.2,2.545,10.586,10.586,0,0,1,.511,2.47,83.844,83.844,0,0,1,5.978-6.9c.383-.4.777-.786,1.172-1.174L23,9.39l.5-.544A8.1,8.1,0,0,0,25,6.288a9.935,9.935,0,0,0,.089-6l1.036-.1a9.193,9.193,0,0,1,.332,6.3c.674-.518,1.351-1.033,2.056-1.508A30.2,30.2,0,0,1,39.146.154l1.393.43A42.1,42.1,0,0,0,29.342,6.2ZM14.009,18.457a9.416,9.416,0,0,0-.635-2.4,13.63,13.63,0,0,0-1.137-2.224c-.126-.191-.266-.371-.4-.556-.527.6-1.045,1.2-1.522,1.835a58.392,58.392,0,0,0-3.682,4.993c.613,1.309,1.173,2.642,1.668,4,.329.9.605,1.819.88,2.738Q10.888,24,12.814,21.292c.42-.591.857-1.169,1.29-1.75A6.277,6.277,0,0,0,14.009,18.457Z" style="fill:url(#linear-gradient)"/><path id="Corner_line" data-name="Corner line" d="M94.007,1.008H5.2a6.013,6.013,0,0,1-4.18,3.934c0,.085-.009.066-.009.066v89h-1L0,4.117A4.974,4.974,0,0,0,4.451,0L94.007.008Z" style="fill-rule:evenodd;fill:url(#linear-gradient-2)"/></svg>